<svg width="1802" height="357" viewBox="0 0 1802 357" fill="none" xmlns="http://www.w3.org/2000/svg">
<path d="M195.534 0C141.461 4.08687 134.231 53.0508 137.375 77.0218H145.627C193.098 65.0756 198.678 20.6963 195.534 0Z" fill="#6FC596"/>
<path d="M132.999 163.045L56.6792 131.097C53.6469 129.828 50.3 132.055 50.3 135.343V272.367C50.3 274.909 52.3605 276.969 54.9022 276.969H82.9164C100.993 276.969 109.9 290.854 111.21 300.154V325.025C111.21 327.567 109.15 329.627 106.608 329.627H27.9008C6.83768 332.456 0.523985 318.493 2.67029e-05 311.158V84.8076C0.936078 57.9741 28.2721 59.1148 42.1288 63.1034C42.3408 63.1644 42.5412 63.2405 42.7416 63.3326L132.898 104.766C134.1 105.318 135.481 105.327 136.689 104.79L230.28 63.1943C252.058 54.6385 271.912 68.4056 273.844 78.9756C273.885 79.1977 273.899 79.4194 273.899 79.6451V300.154C274.207 318.299 258.495 327.142 250.085 329.481C249.717 329.583 249.342 329.627 248.96 329.627H167.291C164.749 329.627 162.689 327.567 162.689 325.025V300.154C162.689 286.474 176.967 276.052 186.66 276.969H213.495C216.037 276.969 218.098 274.909 218.098 272.367V135.381C218.098 132.083 214.732 129.856 211.697 131.144L136.574 163.036C135.432 163.521 134.143 163.524 132.999 163.045Z" fill="#6FC596"/>
<g clip-path="url(#clip0_2007_126)">
<path d="M532.847 49.3779C556.579 49.3779 573.979 55.1381 585.046 66.6585C596.113 78.1788 599.573 93.7337 595.426 113.323C592.885 126.226 586.492 137.574 576.248 147.369C566.004 157.163 551.884 163.675 533.889 166.902C546.339 168.5 556.771 171.38 565.185 175.543C573.599 179.705 580.107 184.774 584.71 190.75C589.282 196.653 592.314 203.6 593.532 210.966C594.767 218.938 594.474 227.072 592.669 234.934C589.217 250.822 581.98 265.642 571.573 278.135C560.7 291.295 547.64 302.484 532.966 311.21C517.219 320.579 500.227 327.675 482.493 332.29C463.943 337.247 444.821 339.745 425.619 339.72C400.497 339.72 381.946 337.071 369.968 331.774C357.99 326.477 353.148 318.181 355.441 306.884C356.734 300.851 359.465 295.219 363.4 290.466C367.08 286.212 370.999 284.067 375.146 284.067C381.049 283.896 386.835 285.724 391.567 289.256C396.066 292.723 400.621 296.47 405.231 300.497C410.149 304.751 415.472 308.512 421.125 311.726C427.118 315.177 434.709 316.907 443.898 316.915C454.475 316.914 465.002 315.458 475.182 312.588C485.336 309.749 494.928 305.189 503.541 299.107C512.4 292.778 520.015 284.868 526.003 275.774C532.347 266.331 536.902 255.043 539.667 241.908C541.968 231.299 542.543 221.963 541.393 213.902C540.534 206.652 538.051 199.689 534.129 193.53C530.563 188.102 525.592 183.741 519.746 180.911C513.545 177.953 506.743 176.472 499.873 176.585H492.609L478.909 241.561C477.759 246.634 477.759 250.493 478.909 253.137C479.964 255.623 481.36 257.951 483.057 260.052C484.655 262.009 486.097 263.911 487.383 265.756C488.582 267.602 488.942 270.25 488.246 273.701C486.648 280.843 480.428 284.415 469.584 284.415H421.868C411.032 284.415 406.422 280.843 408.036 273.701C408.477 270.771 409.722 268.021 411.632 265.756C413.358 263.911 415.204 262.009 417.169 260.052C419.293 257.893 421.256 255.582 423.042 253.137C425.356 249.629 426.942 245.693 427.705 241.561L459.552 91.5846C460.604 87.6805 461.068 83.6417 460.93 79.6009C460.887 77.093 460.171 74.6428 458.857 72.5065C457.767 70.9411 456.185 69.7852 454.362 69.223C452.228 68.6078 450.014 68.3169 447.794 68.3601C440.531 68.5326 433.347 69.9011 426.53 72.4106C418.645 75.1511 411.239 79.1142 404.584 84.1547C397.406 89.6181 391.108 96.1492 385.91 103.52C380.255 111.54 376.369 120.669 374.511 130.304C371.746 143.206 371.63 152.829 374.163 159.173C376.696 165.516 380.612 168.684 385.91 168.676C388.044 168.741 390.168 168.347 392.136 167.52C394.105 166.693 395.873 165.452 397.32 163.882C400.411 160.545 403.297 157.023 405.962 153.337C408.604 149.689 411.492 146.226 414.604 142.971C416.018 141.461 417.734 140.266 419.64 139.463C421.546 138.66 423.599 138.267 425.667 138.309C427.519 138.213 429.365 138.591 431.03 139.407C432.695 140.222 434.125 141.449 435.184 142.971C437.366 146.087 437.765 150.984 436.383 157.663C435.688 161.114 433.554 164.569 429.982 168.029C425.91 171.834 421.313 175.034 416.33 177.532C404.116 183.746 390.613 187.006 376.908 187.047C369.967 187.081 363.072 185.909 356.532 183.584C350.316 181.404 344.693 177.805 340.111 173.074C335.396 168.091 332.052 161.972 330.402 155.314C328.453 148.068 328.509 139.484 330.57 129.561C333.289 116.066 339.557 103.541 348.729 93.2743C358.26 82.8173 369.774 74.3569 382.602 68.3841C397.058 61.614 412.344 56.7789 428.065 54.0037C445.633 50.8325 463.454 49.2721 481.307 49.342L532.847 49.3779ZM509.678 156.524C517.061 156.524 523.805 153.588 529.91 147.716C536.015 141.844 540.23 133.376 542.555 122.311C543.905 115.775 544.424 109.095 544.101 102.43C543.878 96.5859 542.539 90.8385 540.158 85.4969C538.041 80.7821 534.696 76.7221 530.473 73.7408C525.973 70.7611 520.658 69.2535 515.263 69.4267L500.736 139.244C498.179 150.772 501.159 156.532 509.678 156.524Z" fill="#624C32"/>
<path d="M681.845 39C687.606 39 691.929 40.1984 694.814 42.5951C697.698 44.9919 698.446 49.338 697.055 55.6334L655.919 248.475C654.992 253.549 654.876 257.407 655.571 260.052C656.175 262.499 657.166 264.833 658.508 266.966C659.709 268.804 660.806 270.709 661.792 272.671C662.711 274.516 662.827 277.164 662.14 280.616C660.542 287.758 654.321 291.329 643.478 291.329H600.256C594.503 291.329 590.571 290.526 588.498 288.932C586.424 287.339 585.861 284.558 586.772 280.64C587.24 277.664 588.48 274.863 590.367 272.515C592.093 270.565 593.939 268.608 595.905 266.643C598.057 264.45 600.022 262.081 601.778 259.56C604.073 255.978 605.656 251.986 606.441 247.804L640.361 88.7804C641.512 83.7073 641.684 79.8485 640.877 77.2041C640.167 74.7667 639.122 72.4397 637.772 70.2895C636.567 68.4541 635.47 66.5494 634.488 64.5853C633.561 62.7398 633.445 60.0873 634.14 56.628C634.987 53.6412 636.891 51.0642 639.498 49.3779C642.862 47.0547 646.523 45.1927 650.382 43.8414C655.204 42.1383 660.188 40.9336 665.256 40.2463C670.749 39.432 676.293 39.0155 681.845 39Z" fill="#624C32"/>
<path d="M748.571 108.134C754.325 108.134 758.588 109.333 761.36 111.729C764.133 114.126 764.824 118.448 763.434 124.696L737.161 248.475C736.242 253.549 736.126 257.407 736.813 260.052C737.416 262.499 738.408 264.833 739.75 266.966C740.951 268.804 742.047 270.709 743.034 272.671C743.953 274.516 744.068 277.165 743.381 280.616C741.783 287.758 735.558 291.329 724.707 291.329H681.497C675.744 291.329 671.813 290.526 669.739 288.933C667.665 287.339 667.09 284.558 668.013 280.64C668.481 277.664 669.721 274.863 671.609 272.515C673.335 270.565 675.177 268.608 677.134 266.643C679.294 264.454 681.263 262.084 683.02 259.56C685.31 255.975 686.892 251.985 687.682 247.804L706.704 157.926C707.855 152.853 708.026 148.991 707.219 146.338C706.507 143.929 705.522 141.609 704.283 139.424C703.084 137.47 702.089 135.577 701.166 133.731C700.244 131.886 700.136 129.238 700.819 125.774C701.282 123.01 703.012 120.589 706.009 118.512C709.451 116.216 713.168 114.36 717.072 112.988C721.891 111.286 726.871 110.081 731.935 109.392C737.443 108.572 743.003 108.152 748.571 108.134ZM755.14 39.0001C762.739 39.0001 768.672 41.0772 772.939 45.2316C777.206 49.386 778.404 55.3778 776.535 63.2072C774.937 71.2842 771.133 77.3919 765.124 81.5303C759.144 85.6709 752.021 87.8449 744.748 87.7498C737.149 87.7498 731.271 85.6766 727.116 81.5303C722.961 77.3839 721.695 71.2762 723.317 63.2072C725.162 55.3778 729.022 49.386 734.895 45.2316C740.812 41.0623 747.901 38.8801 755.14 39.0001Z" fill="#624C32"/>
<path d="M908.633 248.475C907.714 253.549 907.598 257.407 908.285 260.052C908.888 262.499 909.88 264.833 911.222 266.966C912.423 268.804 913.519 270.709 914.506 272.671C915.425 274.516 915.541 277.164 914.853 280.616C913.255 287.758 907.031 291.329 896.179 291.329H852.994C847.224 291.329 843.305 290.53 841.235 288.933C839.166 287.335 838.59 284.57 839.509 280.64C839.978 277.664 841.217 274.863 843.105 272.515C844.831 270.565 846.673 268.608 848.631 266.643C850.787 264.451 852.755 262.081 854.516 259.56C856.806 255.975 858.389 251.985 859.178 247.804L875.084 172.451C876.93 164.158 877.505 157.935 876.81 153.78C876.115 149.626 873.809 147.553 869.894 147.561C865.978 147.561 862.119 149.81 858.315 154.307C854.039 159.568 850.492 165.38 847.768 171.588C844.336 179.169 841.394 186.963 838.958 194.92C836.297 203.453 834.048 211.634 832.21 219.463L825.989 248.499C825.066 253.569 824.958 257.427 825.641 260.076C826.249 262.523 827.244 264.858 828.59 266.99C829.782 268.834 830.879 270.738 831.874 272.695C832.785 274.54 832.905 277.188 832.21 280.64C830.612 287.782 824.391 291.353 813.548 291.353H770.29C764.537 291.353 760.621 290.554 758.544 288.956C756.466 287.359 755.887 284.594 756.806 280.664C757.274 277.688 758.514 274.887 760.401 272.539C762.135 270.589 763.981 268.632 765.939 266.667C768.091 264.474 770.056 262.105 771.812 259.584C774.102 255.997 775.688 252.008 776.487 247.828L795.497 157.95C796.647 152.877 796.819 149.015 796.012 146.362C795.305 143.951 794.319 141.631 793.075 139.448C791.925 137.49 790.886 135.593 789.959 133.755C789.032 131.918 788.92 129.265 789.623 125.798C790.079 123.034 791.805 120.613 794.801 118.536C798.197 116.262 801.856 114.408 805.697 113.012C810.353 111.316 815.173 110.111 820.08 109.416C825.236 108.626 830.445 108.225 835.662 108.218C841.415 108.218 845.562 109.544 848.103 112.197C850.644 114.849 851.336 119.643 850.177 126.577L847.78 146.949C853.725 136.823 860.979 127.523 869.355 119.291C873.087 115.676 877.499 112.838 882.336 110.939C887.173 109.04 892.339 108.12 897.534 108.23C904.446 108.23 910.151 109.728 914.65 112.724C919.172 115.709 922.735 119.937 924.91 124.899C927.333 130.647 928.627 136.806 928.721 143.043C928.9 150.472 928.204 157.898 926.648 165.165L908.633 248.475Z" fill="#624C32"/>
<path d="M1087.02 39C1092.77 39 1097.05 40.3302 1099.81 42.9786C1102.57 45.627 1103.27 50.4085 1101.88 57.3591L1061.78 244.976C1060.86 250.045 1060.75 253.916 1061.44 256.552C1062.04 259.002 1063.03 261.337 1064.38 263.467C1065.57 265.311 1066.67 267.215 1067.66 269.171C1068.57 271.017 1068.69 273.669 1068.01 277.129C1067.14 280.089 1065.24 282.64 1062.65 284.319C1059.33 286.624 1055.73 288.485 1051.93 289.855C1047.34 291.532 1042.59 292.736 1037.76 293.45C1032.55 294.253 1027.29 294.653 1022.02 294.649C1016.27 294.649 1012.24 293.323 1009.93 290.67C1007.62 288.018 1006.69 283.224 1007.16 276.29L1007.85 264.881C1001.86 274.564 995.348 281.938 988.316 287.003C981.284 292.068 972.934 294.665 963.265 294.793C955.76 294.969 948.406 292.661 942.349 288.225C936.476 283.847 931.982 277.568 928.865 269.387C925.749 261.206 924.079 251.356 923.855 239.835C923.772 226.936 925.163 214.07 928.002 201.487C930.682 188.196 934.74 175.219 940.108 162.768C944.593 152.206 950.527 142.321 957.74 133.396C963.813 125.845 971.259 119.511 979.686 114.725C987.34 110.427 995.97 108.166 1004.75 108.158C1013.96 108.158 1020.82 110.175 1025.32 114.21C1029.82 118.244 1033.33 124.524 1035.86 133.048L1045.55 88.8043C1046.7 83.7312 1046.87 79.8725 1046.06 77.2281C1045.35 74.7901 1044.3 72.463 1042.95 70.3135C1041.75 68.4726 1040.66 66.5684 1039.66 64.6092C1038.75 62.7637 1038.63 60.1113 1039.33 56.652C1040.17 53.6652 1042.08 51.0882 1044.69 49.4019C1048.05 47.0787 1051.71 45.2166 1055.57 43.8654C1060.39 42.1623 1065.38 40.9576 1070.44 40.2703C1075.93 39.4485 1081.47 39.024 1087.02 39ZM991.6 259.872C994.697 259.839 997.689 258.744 1000.07 256.768C1003.28 253.988 1005.86 250.572 1007.67 246.738C1010.6 240.864 1012.99 234.735 1014.81 228.427C1017.11 220.813 1019.41 211.478 1021.72 200.421L1026.9 176.573C1027.6 170.025 1027.6 163.42 1026.9 156.872C1026.53 152.12 1025.23 147.485 1023.1 143.222C1021.02 139.228 1017.45 137.211 1012.38 137.171C1006.39 137.171 1000.86 140.686 995.783 147.716C990.709 154.747 986.55 165.995 983.306 181.462C981.708 189.3 980.265 197.768 978.979 206.868C977.756 215.279 977.238 223.777 977.433 232.273C977.444 239.003 978.662 245.675 981.028 251.975C983.246 257.236 986.758 259.872 991.6 259.872Z" fill="#624C32"/>
<path d="M1181.75 108.134C1189.37 108.038 1196.95 109.208 1204.18 111.597C1210.48 113.651 1216.17 117.21 1220.77 121.963C1225.35 126.956 1228.46 133.114 1229.76 139.759C1231.36 147.021 1231.13 155.49 1229.08 165.165L1211.83 244.976C1209.75 256.281 1211.01 261.929 1215.63 261.921C1216.36 261.953 1217.08 261.812 1217.74 261.51C1218.4 261.208 1218.98 260.753 1219.43 260.184C1220.39 258.983 1221.25 257.713 1222.02 256.385C1222.8 255.059 1223.66 253.789 1224.62 252.586C1225.07 252.018 1225.65 251.565 1226.31 251.265C1226.97 250.965 1227.7 250.826 1228.42 250.86C1228.84 250.805 1229.27 250.839 1229.68 250.96C1230.09 251.081 1230.47 251.286 1230.8 251.563C1231.12 251.839 1231.39 252.181 1231.57 252.566C1231.76 252.95 1231.86 253.37 1231.87 253.796C1232.09 255.798 1231.98 257.823 1231.54 259.788C1230.57 264.053 1229.06 268.177 1227.04 272.059C1224.93 276.145 1222.12 279.831 1218.74 282.953C1215.15 286.269 1210.99 288.904 1206.46 290.73C1201.23 292.779 1195.65 293.777 1190.04 293.666C1182.67 293.666 1176.56 291.537 1171.73 287.279C1166.89 283.021 1164.47 275.587 1164.46 264.977C1159.15 274.66 1153.16 282.034 1146.48 287.099C1139.72 292.196 1131.45 294.876 1122.98 294.709C1109.6 294.709 1099.61 290.315 1093.01 281.527C1086.41 272.739 1084.51 261.678 1087.31 248.344C1090.5 232.669 1098.17 220.398 1110.3 211.53C1122.43 202.662 1137.35 196.27 1155.07 192.356L1174.09 188.209L1177.89 170.581C1184.34 140.622 1183.07 125.642 1174.09 125.642C1171.27 125.578 1168.52 126.493 1166.31 128.231C1163.81 130.365 1161.8 133.019 1160.42 136.008C1158.45 140.087 1156.77 144.304 1155.41 148.627C1153.82 153.588 1152.09 159.181 1150.22 165.404C1149.16 169.862 1146.95 173.969 1143.83 177.328C1140.72 180.668 1136.05 182.341 1129.83 182.349C1126.88 182.361 1123.97 181.645 1121.36 180.264C1118.68 178.863 1116.37 176.852 1114.61 174.392C1112.72 171.749 1111.37 168.755 1110.65 165.584C1109.83 162.109 1109.89 158.486 1110.81 155.038C1112.23 148.961 1115.01 143.285 1118.94 138.441C1123.5 132.641 1128.92 127.574 1135.01 123.413C1141.75 118.773 1149.07 115.053 1156.79 112.352C1164.8 109.511 1173.25 108.084 1181.75 108.134ZM1157.2 210.799C1152.54 211.685 1148.36 214.242 1145.45 217.989C1142.39 222.347 1140.27 227.293 1139.22 232.513C1138.52 235.632 1138.18 238.82 1138.19 242.016C1138.13 245.001 1138.54 247.976 1139.39 250.836C1140.09 253.208 1141.32 255.391 1142.98 257.224C1143.83 258.098 1144.86 258.781 1145.99 259.228C1147.12 259.674 1148.34 259.873 1149.55 259.812C1151.2 259.843 1152.83 259.446 1154.29 258.661C1155.74 257.876 1156.97 256.728 1157.85 255.33C1159.92 252.334 1161.65 247.261 1163.04 240.111L1169.94 207.971L1157.2 210.799Z" fill="#624C32"/>
<path d="M1404.04 71.2123C1406.59 71.1445 1409.08 71.9337 1411.12 73.4532C1413.01 74.8684 1414.55 76.7017 1415.62 78.81C1416.68 80.9443 1417.43 83.2147 1417.87 85.5568C1418.33 87.6613 1418.33 89.8396 1417.87 91.9441C1416.92 96.1501 1414.68 99.9564 1411.47 102.837C1407.82 106.159 1403.68 108.899 1399.2 110.962C1394.01 113.377 1388.56 115.175 1382.96 116.319C1376.92 117.591 1370.79 118.341 1364.63 118.56C1377.3 123.17 1385.72 131.411 1389.87 143.282C1394.03 155.154 1394.37 169.383 1390.9 185.968C1388.63 197.049 1384.54 207.678 1378.8 217.426C1373.57 226.291 1366.84 234.185 1358.92 240.758C1351.12 247.147 1342.22 252.064 1332.65 255.27C1322.57 258.656 1312 260.349 1301.37 260.279C1288.92 260.279 1279.58 261.662 1273.36 264.426C1267.13 267.19 1263.68 270.418 1262.99 274.109C1261.83 278.255 1264.94 280.328 1272.32 280.328C1278.11 280.302 1283.86 279.496 1289.43 277.931C1295.32 276.334 1301.31 274.548 1307.41 272.575C1313.5 270.601 1319.5 268.876 1325.39 267.398C1330.75 265.967 1336.26 265.21 1341.81 265.145C1346.38 265.141 1350.93 265.84 1355.29 267.218C1359.53 268.522 1363.39 270.837 1366.54 273.965C1369.78 277.325 1372.05 281.505 1373.1 286.056C1374.37 291.018 1374.19 297.065 1372.58 304.2C1371.13 312.06 1368.33 319.608 1364.28 326.501C1360.67 332.692 1356.12 338.287 1350.8 343.087C1346.03 347.387 1340.6 350.891 1334.72 353.465C1329.44 355.798 1323.72 357.021 1317.94 357.06C1310.33 357.06 1304.34 354.811 1299.96 350.313C1295.59 345.815 1294 341.022 1295.17 335.933C1295.48 333.866 1296.26 331.899 1297.46 330.189C1298.66 328.479 1300.25 327.072 1302.09 326.082C1306.25 323.95 1310.69 322.382 1315.27 321.42C1328.41 318.88 1338.44 316.747 1345.36 315.021C1352.28 313.295 1356.08 310.703 1356.75 307.244C1357.67 303.321 1353.87 301.364 1345.36 301.372C1338.87 301.469 1332.43 302.396 1326.18 304.128C1319.14 305.973 1311.7 307.971 1303.87 310.12C1296.04 312.269 1288.15 314.286 1280.2 316.171C1272.55 317.981 1264.72 318.909 1256.86 318.94C1245.56 318.94 1236.57 316.575 1229.89 311.845C1223.21 307.116 1220.91 299.454 1222.98 288.861C1225.17 278.308 1231.45 269.051 1240.44 263.108C1250.06 256.798 1260.79 252.399 1272.07 250.153C1260.32 246.239 1252.08 238.229 1247.35 226.126C1242.62 214.022 1242.22 198.871 1246.15 180.672C1248.41 169.86 1252.37 159.476 1257.89 149.909C1262.95 141.233 1269.5 133.524 1277.25 127.14C1284.86 120.912 1293.53 116.109 1302.84 112.964C1312.53 109.715 1322.69 108.096 1332.91 108.17C1343.75 108.17 1352.74 106.269 1359.88 102.466C1366.52 99.0197 1372.68 94.7212 1378.21 89.6792C1383.27 84.9576 1387.76 80.6954 1391.69 76.8926C1395.51 73.0458 1399.66 71.2123 1404.04 71.2123ZM1310.69 242.579C1316.23 242.579 1321.13 239.356 1325.39 232.909C1329.65 226.461 1333.05 217.358 1335.59 205.598C1336.96 198.455 1338.29 190.274 1339.57 181.055C1340.79 172.411 1341.31 163.682 1341.12 154.955C1341.1 147.891 1339.88 140.883 1337.53 134.223C1335.34 128.574 1331.48 125.75 1325.94 125.75C1320.4 125.75 1315.51 128.978 1311.26 135.433C1306.99 141.88 1303.59 150.98 1301.06 162.732C1299.46 169.922 1298.07 178.103 1296.91 187.275C1295.78 195.927 1295.31 204.652 1295.52 213.375C1295.53 220.444 1296.75 227.458 1299.11 234.119C1301.31 239.759 1305.17 242.579 1310.69 242.579Z" fill="#624C32"/>
<path d="M1453.49 190.75C1452.58 199.013 1452.35 207.339 1452.81 215.64C1453.12 223.08 1454.82 230.396 1457.82 237.211C1460.59 243.422 1465.09 248.702 1470.79 252.418C1476.54 256.229 1484.26 258.13 1493.95 258.122C1503.63 258.114 1511.62 256.213 1517.92 252.418C1523.82 248.95 1529.27 244.772 1534.16 239.979C1538.66 235.489 1542.46 231.343 1545.57 227.54C1548.68 223.737 1551.74 221.836 1554.74 221.836C1555.51 221.762 1556.28 221.92 1556.96 222.289C1557.63 222.659 1558.19 223.223 1558.54 223.909C1559.25 225.542 1559.38 227.372 1558.89 229.086C1557.5 235.549 1554.33 242.635 1549.38 250.345C1544.08 258.455 1537.55 265.688 1530.01 271.784C1521.57 278.646 1512.13 284.182 1502.01 288.201C1490.63 292.703 1478.48 294.934 1466.24 294.768C1452.86 294.768 1441.22 292.579 1431.31 288.201C1421.89 284.211 1413.71 277.762 1407.64 269.531C1401.75 261.462 1398 251.667 1396.39 240.147C1394.79 228.626 1395.48 215.844 1398.47 201.799C1401.21 188.175 1406.18 175.095 1413.16 163.079C1419.66 151.933 1427.97 141.946 1437.74 133.528C1447.31 125.355 1458.27 118.974 1470.11 114.689C1482.18 110.298 1494.94 108.075 1507.79 108.122C1517.44 107.964 1527.05 109.547 1536.14 112.796C1543.96 115.573 1550.93 120.335 1556.36 126.613C1561.74 133.143 1565.37 140.938 1566.91 149.262C1568.75 158.242 1568.41 168.496 1565.87 180.024L1565.53 182.421C1564.14 187.95 1559.99 190.714 1553.07 190.714L1453.49 190.75ZM1518.84 171.732C1520.17 165.78 1520.75 159.684 1520.57 153.588C1520.47 148.539 1519.41 143.555 1517.46 138.896C1515.74 134.909 1512.92 131.493 1509.34 129.046C1505.37 126.532 1500.7 125.379 1496.02 125.762C1487.23 126.233 1479.4 129.98 1472.52 137.003C1465.64 144.025 1460.44 155.61 1456.93 171.756L1518.84 171.732Z" fill="#624C32"/>
<path d="M1749.07 172.427C1752.52 155.841 1750.92 147.545 1744.28 147.537C1740.58 147.537 1736.9 149.785 1733.21 154.283C1729.04 159.583 1725.55 165.389 1722.83 171.564C1719.41 179.131 1716.52 186.927 1714.19 194.896C1711.65 203.429 1709.46 211.609 1707.62 219.439L1701.4 248.475C1700.48 253.548 1700.31 257.407 1700.89 260.052C1701.37 262.433 1702.12 264.753 1703.13 266.966C1704.05 268.924 1704.91 270.825 1705.73 272.671C1706.54 274.516 1706.6 277.164 1705.9 280.616C1704.3 287.758 1698.3 291.329 1687.92 291.329H1646.78C1636.62 291.329 1632.36 287.758 1633.99 280.616C1634.46 277.665 1635.64 274.874 1637.44 272.491C1639.05 270.537 1640.79 268.584 1642.63 266.619C1644.66 264.411 1646.51 262.043 1648.16 259.536C1650.34 255.915 1651.86 251.934 1652.65 247.78L1668.56 172.427C1670.41 164.134 1671.1 157.91 1670.63 153.756C1670.17 149.61 1667.98 147.537 1664.06 147.537C1659.92 147.537 1655.92 149.785 1652.08 154.283C1647.77 159.585 1644.11 165.387 1641.18 171.564C1637.53 179.094 1634.47 186.894 1632.03 194.896C1629.37 203.429 1627.12 211.609 1625.28 219.439L1619.06 248.475C1618.13 253.548 1618.02 257.407 1618.72 260.052C1619.31 262.474 1620.24 264.801 1621.48 266.966C1622.63 268.924 1623.67 270.825 1624.59 272.671C1625.52 274.516 1625.64 277.164 1624.94 280.616C1623.34 287.758 1617.24 291.329 1606.62 291.329H1564.78C1559.25 291.329 1555.44 290.53 1553.37 288.932C1551.3 287.335 1550.73 284.57 1551.65 280.64C1552.11 277.662 1553.35 274.86 1555.24 272.515C1556.97 270.565 1558.81 268.608 1560.77 266.643C1562.93 264.45 1564.89 262.081 1566.65 259.56C1568.94 255.975 1570.53 251.985 1571.32 247.804L1590.33 157.926C1591.48 152.853 1591.65 148.991 1590.85 146.338C1590.14 143.928 1589.15 141.608 1587.91 139.424C1586.71 137.47 1585.71 135.577 1584.8 133.731C1583.89 131.886 1583.76 129.237 1584.45 125.774C1584.91 123.01 1586.64 120.589 1589.64 118.512C1593.03 116.236 1596.69 114.381 1600.53 112.987C1605.18 111.295 1610 110.09 1614.91 109.392C1620.07 108.602 1625.28 108.201 1630.49 108.194C1636.25 108.194 1640.4 109.52 1642.95 112.173C1645.49 114.825 1646.18 119.618 1645.02 126.553L1642.62 146.925C1648.19 136.651 1655.28 127.284 1663.67 119.147C1670.96 111.998 1680.78 108.022 1690.99 108.086C1701.8 108.086 1709.76 111.657 1714.84 118.8C1719.92 125.942 1722.46 135.277 1722.45 146.806C1728.08 136.506 1735.31 127.17 1743.88 119.147C1751.32 112.025 1761.23 108.061 1771.53 108.086C1778.22 108.086 1783.81 109.584 1788.31 112.58C1792.81 115.575 1796.3 119.85 1798.34 124.851C1800.64 130.631 1801.85 136.779 1801.94 142.995C1802.13 150.44 1801.44 157.881 1799.89 165.165L1781.91 248.475C1780.99 253.548 1780.88 257.407 1781.56 260.052C1782.17 262.499 1783.16 264.833 1784.5 266.966C1785.7 268.807 1786.79 270.711 1787.78 272.671C1788.7 274.516 1788.82 277.164 1788.13 280.616C1786.53 287.758 1780.43 291.329 1769.81 291.329H1727.63C1722.1 291.329 1718.29 290.526 1716.22 288.932C1714.14 287.339 1713.57 284.558 1714.49 280.64C1714.96 277.689 1716.15 274.9 1717.95 272.515C1719.55 270.565 1721.28 268.608 1723.13 266.643C1725.17 264.439 1727.02 262.07 1728.67 259.56C1730.84 255.934 1732.36 251.955 1733.16 247.804L1749.07 172.427Z" fill="#624C32"/>
</g>
<defs>
<clipPath id="clip0_2007_126">
<rect width="1473" height="318" fill="white" transform="translate(329 39)"/>
</clipPath>
</defs>
</svg>
